<svg xmlns="http://www.w3.org/2000/svg" viewBox="0 0 64 64" width="64" height="64" role="img" aria-label="Switchgear">
  <title>Switchgear</title>
  <g fill="#1A2332" fill-rule="evenodd">
  <rect x="4" y="38" width="56" height="12" rx="1"/>
  <rect x="14" y="20" width="8" height="20"/>
  <rect x="30" y="20" width="8" height="20"/>
  <rect x="46" y="20" width="8" height="20"/>
  <rect x="12" y="22" width="12" height="4"/>
  <rect x="28" y="22" width="12" height="4"/>
  <rect x="44" y="22" width="12" height="4"/>
  <circle cx="18" cy="12" r="7"/>
  <circle cx="34" cy="12" r="7"/>
  <circle cx="50" cy="12" r="7"/>
  <circle fill="#F5EEE0" cx="18" cy="12" r="3.5"/>
  <circle fill="#F5EEE0" cx="34" cy="12" r="3.5"/>
  <circle fill="#F5EEE0" cx="50" cy="12" r="3.5"/>
  <rect fill="#F5EEE0" x="17" y="6" width="2" height="12"/>
  <rect fill="#F5EEE0" x="12" y="11" width="12" height="2"/>
  <rect fill="#F5EEE0" x="33" y="6" width="2" height="12"/>
  <rect fill="#F5EEE0" x="28" y="11" width="12" height="2"/>
  <rect fill="#F5EEE0" x="49" y="6" width="2" height="12"/>
  <rect fill="#F5EEE0" x="44" y="11" width="12" height="2"/>
  <rect x="6" y="50" width="6" height="10"/>
  <rect x="52" y="50" width="6" height="10"/>
</g>
</svg>
