<svg xmlns="http://www.w3.org/2000/svg" viewBox="0 0 64 64" width="64" height="64" role="img" aria-label="Gear">
  <title>Gear</title>
  <g fill="#1A2332" fill-rule="evenodd">
    <g>
      <rect x="28" y="2" width="8" height="12" rx="1"/>
      <rect x="28" y="2" width="8" height="12" rx="1" transform="rotate(45 32 32)"/>
      <rect x="28" y="2" width="8" height="12" rx="1" transform="rotate(90 32 32)"/>
      <rect x="28" y="2" width="8" height="12" rx="1" transform="rotate(135 32 32)"/>
      <rect x="28" y="2" width="8" height="12" rx="1" transform="rotate(180 32 32)"/>
      <rect x="28" y="2" width="8" height="12" rx="1" transform="rotate(225 32 32)"/>
      <rect x="28" y="2" width="8" height="12" rx="1" transform="rotate(270 32 32)"/>
      <rect x="28" y="2" width="8" height="12" rx="1" transform="rotate(315 32 32)"/>
    </g>
    <circle cx="32" cy="32" r="22"/>
    <circle cx="32" cy="32" r="7" fill="#F5EEE0"/>
  </g>
</svg>
